<?xml version="1.0" encoding="utf-8"?>
<!-- Generator: Adobe Illustrator 22.0.1, SVG Export Plug-In . SVG Version: 6.00 Build 0)  -->
<svg version="1.1" id="Layer_1" xmlns="http://www.w3.org/2000/svg" xmlns:xlink="http://www.w3.org/1999/xlink" x="0px" y="0px"
	 viewBox="0 0 100 100" style="enable-background:new 0 0 100 100;" xml:space="preserve">
<g>
	<path d="M87.963,18.472c-0.055-0.508-0.483-0.893-0.994-0.893H35.29V11c0-0.552-0.448-1-1-1h-9.717c-0.552,0-1,0.448-1,1v6.579
		H13.031c-0.511,0-0.939,0.385-0.994,0.893l-2.031,18.807c-0.031,0.282,0.061,0.564,0.25,0.775c0.19,0.211,0.46,0.332,0.744,0.332
		h2.677V89c0,0.552,0.448,1,1,1h70.646c0.552,0,1-0.448,1-1V38.386H89c0.284,0,0.554-0.121,0.744-0.332
		c0.189-0.211,0.281-0.493,0.25-0.775L87.963,18.472z M25.572,12h7.717v5.579h-7.717V12z M13.929,19.579h72.142l0.48,4.447H13.449
		L13.929,19.579z M13.233,26.026h73.534l0.422,3.907H12.811L13.233,26.026z M20.814,88h-5.137V72.35h5.137V88z M28.755,88h-5.941
		V72.35h5.941V88z M36.695,88h-5.94V72.35h5.94V88z M44.636,88h-5.941V72.35h5.941V88z M52.577,88h-5.94V72.35h5.94V88z M59.534,88
		h-4.958V72.35h4.958V88z M59.534,70.35H15.677V38.386h43.857V70.35z M84.323,88H61.534V38.386h22.789V88z M12.114,36.386
		l0.481-4.453h74.811l0.481,4.453H12.114z"/>
	<path d="M66.793,59.062c-0.39,0.392-0.388,1.025,0.003,1.415c0.393,0.39,1.025,0.388,1.414-0.004l3.573-3.591v3.968l-4.991,5.015
		c-0.389,0.392-0.388,1.025,0.003,1.415c0.392,0.389,1.024,0.388,1.414-0.003l3.573-3.591v6.711c0,0.552,0.448,1,1,1
		c0.552,0,1-0.448,1-1v-6.711l3.573,3.591c0.196,0.196,0.452,0.294,0.709,0.294c0.255,0,0.51-0.097,0.706-0.291
		c0.391-0.39,0.393-1.023,0.003-1.415l-4.991-5.015v-3.968l3.573,3.591c0.196,0.196,0.452,0.295,0.709,0.295
		c0.255,0,0.51-0.097,0.706-0.291c0.391-0.39,0.393-1.023,0.003-1.415l-4.991-5.016v-3.968l3.573,3.591
		c0.196,0.196,0.452,0.294,0.709,0.294c0.255,0,0.51-0.097,0.706-0.291c0.391-0.39,0.393-1.023,0.003-1.415l-5.282-5.308
		c-0.376-0.377-1.042-0.377-1.418,0l-5.282,5.308c-0.39,0.392-0.388,1.025,0.003,1.415c0.392,0.389,1.025,0.388,1.414-0.003
		l3.573-3.591v3.968L66.793,59.062z"/>
</g>
</svg>
