<?xml version="1.0" encoding="utf-8"?>
<!-- Generator: Adobe Illustrator 22.0.1, SVG Export Plug-In . SVG Version: 6.00 Build 0)  -->
<svg version="1.1" id="Layer_1" xmlns="http://www.w3.org/2000/svg" xmlns:xlink="http://www.w3.org/1999/xlink" x="0px" y="0px"
	 viewBox="0 0 100 100" style="enable-background:new 0 0 100 100;" xml:space="preserve">
<path d="M76.086,31.853c1.937,0,3.757-0.754,5.126-2.124l9.723-9.723c0.391-0.391,0.391-1.023,0-1.414l-8.839-8.839
	c-0.391-0.391-1.023-0.391-1.414,0l-9.723,9.723c-1.37,1.369-2.124,3.19-2.124,5.126c0,1.598,0.521,3.113,1.47,4.365l-6.565,6.565
	C37.269,28.003,17.629,41.298,9.109,48.85c-0.212,0.188-0.334,0.457-0.337,0.741c-0.002,0.283,0.116,0.554,0.325,0.746
	c7.509,6.868,16.316,11.8,25.524,14.318l-4.964,4.964c-2.839-2.146-6.906-1.934-9.491,0.653l-9.723,9.723
	c-0.391,0.391-0.391,1.023,0,1.414l8.839,8.839c0.195,0.195,0.451,0.293,0.707,0.293c0.256,0,0.512-0.098,0.707-0.293l9.723-9.723
	c2.586-2.586,2.798-6.653,0.652-9.491l5.825-5.825c4.03,0.924,8.075,1.41,12.134,1.41c13.67,0,27.472-5.234,41.181-15.644
	c0.249-0.189,0.395-0.484,0.395-0.796v-0.042c0-0.312-0.146-0.607-0.395-0.796c-8.574-6.511-16.706-10.689-24.301-13.145
	l5.811-5.811C72.972,31.332,74.487,31.853,76.086,31.853z M29.004,79.109l-9.016,9.016L12.564,80.7l9.016-9.016
	c1.805-1.804,4.605-2.014,6.646-0.636l-9.18,9.18c-0.391,0.391-0.391,1.023,0,1.414c0.195,0.195,0.451,0.293,0.707,0.293
	c0.256,0,0.512-0.098,0.707-0.293l9.18-9.18C31.017,74.504,30.809,77.305,29.004,79.109z M36.196,63.078
	c-11.252-2.854-19.814-8.966-24.915-13.468c8.502-7.264,26.614-18.781,50.809-12.426l-4.567,4.567
	c-2.276-1.218-5.064-1.945-8.084-1.945c-7.618,0-13.815,4.572-13.815,10.193c0,3.322,2.175,6.269,5.519,8.131L36.196,63.078z
	 M57.848,44.254c2.103,1.48,3.406,3.509,3.406,5.746c0,4.518-5.3,8.193-11.815,8.193c-1.714,0-3.34-0.26-4.812-0.718L57.848,44.254z
	 M42.604,56.671c-3.008-1.487-4.98-3.92-4.98-6.671c0-4.518,5.3-8.193,11.815-8.193c2.451,0,4.729,0.521,6.618,1.41L42.604,56.671z
	 M87.967,50.156c-19.212,14.212-36.093,16.211-49.47,13.451l4.571-4.571c1.909,0.736,4.073,1.158,6.371,1.158
	c7.618,0,13.815-4.572,13.815-10.193c0-2.788-1.527-5.316-3.993-7.158l5.031-5.031C71.675,40.051,79.598,43.962,87.967,50.156z
	 M72.373,20.891l9.016-9.016l7.425,7.425l-9.016,9.016c-0.992,0.992-2.31,1.538-3.712,1.538c-1.063,0-2.076-0.316-2.937-0.9
	l9.182-9.182c0.391-0.391,0.391-1.023,0-1.414c-0.391-0.391-1.023-0.391-1.414,0l-9.18,9.18
	C70.36,25.496,70.569,22.695,72.373,20.891z"/>
</svg>
