<?xml version="1.0" encoding="utf-8"?>
<!-- Generator: Adobe Illustrator 22.0.1, SVG Export Plug-In . SVG Version: 6.00 Build 0)  -->
<svg version="1.1" id="Layer_1" xmlns="http://www.w3.org/2000/svg" xmlns:xlink="http://www.w3.org/1999/xlink" x="0px" y="0px"
	 viewBox="0 0 100 100" style="enable-background:new 0 0 100 100;" xml:space="preserve">
<g>
	<path d="M30.59,60.513c-0.067,2.671,0.912,5.159,2.759,7.005c1.842,1.842,4.277,2.756,6.751,2.756c2.626,0,5.296-1.031,7.343-3.077
		c1.919-1.919,3.012-4.436,3.079-7.088c0.067-2.671-0.912-5.159-2.759-7.005c-3.797-3.797-10.119-3.653-14.094,0.321
		C31.75,55.343,30.657,57.861,30.59,60.513z M46.349,54.518c1.455,1.455,2.227,3.423,2.173,5.541
		c-0.054,2.137-0.939,4.17-2.493,5.725c-3.194,3.193-8.248,3.338-11.266,0.321c-1.455-1.455-2.227-3.423-2.173-5.541
		c0.054-2.137,0.939-4.17,2.493-5.725C38.276,51.645,43.33,51.5,46.349,54.518z"/>
	<path d="M67.967,32.9c-3.796-3.796-10.12-3.654-14.094,0.321c-1.919,1.918-3.012,4.436-3.079,7.088
		c-0.068,2.671,0.911,5.159,2.758,7.005c1.842,1.842,4.277,2.757,6.752,2.756c2.626,0,5.296-1.031,7.342-3.077
		C71.619,43.02,71.764,36.698,67.967,32.9z M66.231,45.58c-3.194,3.193-8.249,3.338-11.266,0.321
		c-1.455-1.455-2.227-3.422-2.173-5.541c0.055-2.137,0.94-4.171,2.494-5.725c1.657-1.657,3.814-2.493,5.928-2.493
		c1.962,0,3.886,0.72,5.338,2.172C69.569,37.332,69.426,42.386,66.231,45.58z"/>
	<path d="M90.014,79.813l-9.666-9.666c-1.362-1.362-3.173-2.113-5.101-2.113c-1.589,0-3.094,0.517-4.339,1.46l-8.25-8.25
		c13.12-12.723,21.939-28.651,25.795-47.16l0.047-0.228c0.069-0.33-0.033-0.673-0.272-0.912l-0.281-0.281
		c-0.235-0.235-0.571-0.338-0.897-0.275l-0.171,0.033c-18.768,3.634-34.895,12.283-47.752,25.291l-8.621-8.621
		c0.943-1.245,1.46-2.751,1.46-4.339c0-1.927-0.751-3.738-2.113-5.101l-9.665-9.666c-0.391-0.391-1.023-0.391-1.414,0l-8.787,8.787
		c-0.188,0.188-0.293,0.442-0.293,0.707c0,0.265,0.105,0.52,0.293,0.707l9.666,9.666c1.362,1.362,3.173,2.113,5.101,2.113
		c1.589,0,3.094-0.517,4.339-1.46l8.643,8.643c-11.801,12.463-20.72,28.718-26.219,48.257c-0.097,0.345-0.002,0.716,0.25,0.972
		l0.029,0.03c0.19,0.194,0.448,0.299,0.713,0.299c0.091,0,0.182-0.012,0.271-0.038c19.546-5.501,35.861-14.361,48.43-26.047
		l8.286,8.286c-0.943,1.245-1.46,2.751-1.46,4.339c0,1.927,0.751,3.738,2.113,5.101l9.665,9.666
		c0.195,0.195,0.451,0.293,0.707,0.293c0.256,0,0.512-0.098,0.707-0.293l8.787-8.787c0.188-0.188,0.293-0.442,0.293-0.707
		C90.307,80.255,90.201,80.001,90.014,79.813z M29.077,27.663l-9.123-9.123c-0.391-0.391-1.023-0.391-1.414,0
		c-0.391,0.391-0.391,1.023,0,1.414l9.124,9.124c-0.853,0.577-1.858,0.889-2.91,0.889c-1.392,0-2.702-0.542-3.687-1.527
		l-8.959-8.959l7.373-7.373l8.958,8.959c0.984,0.985,1.527,2.294,1.527,3.686C29.966,25.805,29.653,26.809,29.077,27.663z
		 M13.928,86.257C19.36,67.823,27.929,52.439,39.156,40.57l20.631,20.631C47.815,72.317,32.372,80.827,13.928,86.257z
		 M40.552,39.138c12.366-12.513,27.81-20.905,45.751-24.562c-3.866,17.718-12.43,32.991-25.07,45.243L40.552,39.138z M80.519,87.893
		l-8.958-8.959c-0.984-0.985-1.527-2.294-1.527-3.687c0-1.053,0.312-2.057,0.889-2.91l9.123,9.123
		c0.195,0.195,0.451,0.293,0.707,0.293c0.256,0,0.512-0.098,0.707-0.293c0.391-0.391,0.391-1.023,0-1.414l-9.124-9.124
		c0.853-0.577,1.857-0.889,2.91-0.889c1.393,0,2.702,0.542,3.687,1.527l8.959,8.959L80.519,87.893z"/>
</g>
</svg>
