<?xml version="1.0" encoding="utf-8"?>
<!-- Generator: Adobe Illustrator 22.0.1, SVG Export Plug-In . SVG Version: 6.00 Build 0)  -->
<svg version="1.1" id="Layer_1" xmlns="http://www.w3.org/2000/svg" xmlns:xlink="http://www.w3.org/1999/xlink" x="0px" y="0px"
	 viewBox="0 0 100 100" style="enable-background:new 0 0 100 100;" xml:space="preserve">
<g>
	<path d="M28.428,55.023c-2.75,0-4.987,2.237-4.987,4.987s2.237,4.987,4.987,4.987c2.751,0,4.988-2.237,4.988-4.987
		S31.179,55.023,28.428,55.023z M28.428,62.998c-1.647,0-2.987-1.34-2.987-2.987c0-1.647,1.34-2.987,2.987-2.987
		c1.648,0,2.988,1.34,2.988,2.987C31.416,61.658,30.076,62.998,28.428,62.998z"/>
	<path d="M71.751,55.023c-2.751,0-4.988,2.237-4.988,4.987s2.237,4.987,4.988,4.987c2.75,0,4.987-2.237,4.987-4.987
		S74.501,55.023,71.751,55.023z M71.751,62.998c-1.648,0-2.988-1.34-2.988-2.987c0-1.647,1.34-2.987,2.988-2.987
		c1.647,0,2.987,1.34,2.987,2.987C74.738,61.658,73.398,62.998,71.751,62.998z"/>
	<path d="M89,68.491h-1.667V55.153c0-3.739-3.042-6.781-6.781-6.781h-1.365l-2.984-21.084c-0.628-3.479-3.211-6.089-6.329-6.565
		v-3.835h1.297c0.552,0,1-0.447,1-1c0-0.553-0.448-1-1-1h-1.297v-2.375c0-0.553-0.448-1-1-1c-0.552,0-1,0.447-1,1v2.375H51v-2.375
		c0-0.553-0.448-1-1-1c-0.552,0-1,0.447-1,1v2.375H32.125v-2.375c0-0.553-0.448-1-1-1c-0.552,0-1,0.447-1,1v2.375h-1.297
		c-0.552,0-1,0.447-1,1c0,0.553,0.448,1,1,1h1.297v3.862c-3.037,0.547-5.534,3.131-6.156,6.577l-2.977,21.046h-1.365
		c-3.739,0-6.781,3.042-6.781,6.781v13.338H11c-0.552,0-1,0.447-1,1v6.529c0,0.553,0.448,1,1,1h9.389v6.304
		c0,2.847,2.2,5.163,4.903,5.163c2.704,0,4.903-2.316,4.903-5.163v-6.304h39.79v6.304c0,2.847,2.199,5.163,4.903,5.163
		c2.704,0,4.903-2.316,4.903-5.163v-6.304H89c0.552,0,1-0.447,1-1v-6.529C90,68.938,89.552,68.491,89,68.491z M51,16.888h16.875
		v3.75H51V16.888z M51,22.638h17.853c2.595,0,4.858,2.106,5.376,4.968l2.938,20.767h-9.889v-5.194c0-1.889-1.537-3.426-3.426-3.426
		H51V22.638z M63.852,41.752c0.787,0,1.426,0.64,1.426,1.426v5.194h-30.63v-5.194c0-0.786,0.64-1.426,1.427-1.426H63.852z
		 M32.125,16.888H49v3.75H32.125V16.888z M25.943,27.644c0.524-2.9,2.788-5.006,5.382-5.006H49v17.114H36.074
		c-1.89,0-3.427,1.537-3.427,3.426v5.194h-9.635L25.943,27.644z M14.846,55.153c0-2.637,2.145-4.781,4.781-4.781h60.924
		c2.636,0,4.781,2.145,4.781,4.781v13.338H14.846V55.153z M28.195,83.324c0,1.744-1.302,3.163-2.903,3.163
		c-1.601,0-2.903-1.419-2.903-3.163v-6.304h5.806V83.324z M77.79,83.324c0,1.744-1.302,3.163-2.903,3.163
		c-1.601,0-2.903-1.419-2.903-3.163v-6.304h5.806V83.324z M88,75.021H12v-4.529h76V75.021z"/>
</g>
</svg>
