<?xml version="1.0" encoding="utf-8"?>
<!-- Generator: Adobe Illustrator 22.0.1, SVG Export Plug-In . SVG Version: 6.00 Build 0)  -->
<svg version="1.1" id="Layer_1" xmlns="http://www.w3.org/2000/svg" xmlns:xlink="http://www.w3.org/1999/xlink" x="0px" y="0px"
	 viewBox="0 0 100 100" style="enable-background:new 0 0 100 100;" xml:space="preserve">
<path d="M89,88H71.729V40.474l16.543,17.561c0.379,0.402,1.013,0.42,1.413,0.042c0.402-0.379,0.421-1.012,0.042-1.413L71.729,37.557
	v-10.56l16.543,17.561c0.379,0.403,1.013,0.42,1.413,0.042c0.402-0.379,0.421-1.012,0.042-1.414L71.729,24.08V13.52l16.543,17.561
	c0.379,0.402,1.013,0.42,1.413,0.042c0.402-0.379,0.421-1.012,0.042-1.414L71.457,10.314c-0.003-0.004-0.008-0.005-0.012-0.008
	C71.263,10.119,71.011,10,70.729,10c-0.282,0-0.534,0.119-0.716,0.306c-0.003,0.003-0.008,0.004-0.012,0.008L51.73,29.71
	c-0.378,0.402-0.36,1.035,0.042,1.414c0.193,0.182,0.439,0.272,0.686,0.272c0.266,0,0.531-0.105,0.728-0.314L69.729,13.52v10.56
	L51.73,43.187c-0.378,0.402-0.36,1.035,0.042,1.414c0.193,0.182,0.439,0.272,0.686,0.272c0.266,0,0.531-0.105,0.728-0.314
	l16.542-17.561v10.56L51.73,56.664c-0.378,0.402-0.36,1.035,0.042,1.413c0.193,0.182,0.439,0.272,0.686,0.272
	c0.266,0,0.531-0.106,0.728-0.314l16.542-17.561V88H30.271V40.474l16.542,17.561c0.197,0.209,0.462,0.314,0.728,0.314
	c0.246,0,0.493-0.09,0.686-0.272c0.402-0.379,0.421-1.012,0.042-1.413L30.271,37.557v-10.56l16.542,17.561
	c0.197,0.209,0.462,0.314,0.728,0.314c0.246,0,0.493-0.09,0.686-0.272c0.402-0.379,0.421-1.012,0.042-1.414L30.271,24.08V13.52
	l16.542,17.561c0.197,0.209,0.462,0.314,0.728,0.314c0.246,0,0.493-0.09,0.686-0.272c0.402-0.379,0.421-1.012,0.042-1.414
	L29.999,10.314c-0.003-0.004-0.009-0.005-0.012-0.009c-0.075-0.078-0.167-0.135-0.264-0.185c-0.021-0.011-0.037-0.03-0.059-0.04
	C29.543,10.029,29.411,10,29.271,10c-0.14,0-0.272,0.029-0.393,0.081c-0.022,0.009-0.038,0.029-0.059,0.04
	c-0.097,0.05-0.189,0.107-0.264,0.185c-0.003,0.004-0.009,0.005-0.012,0.009L10.272,29.71c-0.378,0.402-0.36,1.035,0.042,1.414
	c0.401,0.377,1.034,0.36,1.414-0.042L28.271,13.52v10.56L10.272,43.187c-0.378,0.402-0.36,1.035,0.042,1.414
	c0.401,0.378,1.034,0.36,1.414-0.042l16.543-17.561v10.56L10.272,56.664c-0.378,0.402-0.36,1.035,0.042,1.413
	c0.401,0.378,1.034,0.36,1.414-0.042l16.543-17.561V88H11c-0.552,0-1,0.448-1,1s0.448,1,1,1h78c0.552,0,1-0.448,1-1S89.552,88,89,88
	z"/>
</svg>
