<?xml version="1.0" encoding="utf-8"?>
<!-- Generator: Adobe Illustrator 22.0.1, SVG Export Plug-In . SVG Version: 6.00 Build 0)  -->
<svg version="1.1" id="Layer_1" xmlns="http://www.w3.org/2000/svg" xmlns:xlink="http://www.w3.org/1999/xlink" x="0px" y="0px"
	 viewBox="0 0 100 100" style="enable-background:new 0 0 100 100;" xml:space="preserve">
<g>
	<path d="M89,42.443h-4.428c-3.006-6.617-9.821-11.253-17.74-11.253c-0.002,0-0.004,0-0.006,0l-33.769,0.215
		c-7.812,0-14.54,4.541-17.564,11.038H11c-0.552,0-1,0.448-1,1v13.113c0,0.552,0.448,1,1,1h4.31c0.025,0,0.045-0.012,0.069-0.014
		c2.97,6.621,9.772,11.266,17.678,11.266c7.071,0,13.481-3.717,16.855-9.62c3.402,5.903,9.838,9.62,16.919,9.62
		c7.921,0,14.738-4.638,17.743-11.257c0.009,0,0.016,0.005,0.024,0.005H89c0.552,0,1-0.448,1-1V43.443
		C90,42.891,89.552,42.443,89,42.443z M14.621,55.557H12V44.443h2.69c-0.587,1.788-0.909,3.69-0.909,5.664
		C13.781,52.003,14.078,53.831,14.621,55.557z M66.832,66.809c-6.99,0-13.274-4.02-16.008-10.243
		c-0.16-0.363-0.519-0.598-0.916-0.598c0,0-0.002,0-0.002,0c-0.398,0.001-0.757,0.237-0.915,0.602
		c-2.703,6.22-8.958,10.239-15.934,10.239c-9.526,0-17.276-7.492-17.276-16.702s7.75-16.702,17.282-16.702l33.772-0.215
		C76.42,33.193,84.219,40.732,84.219,50C84.219,59.269,76.419,66.809,66.832,66.809z M88,55.557h-2.646
		c0.561-1.757,0.865-3.623,0.865-5.557s-0.304-3.8-0.865-5.557H88V55.557z"/>
	<path d="M66.808,36.781H33.24c-7.507,0-13.615,5.93-13.615,13.219s6.108,13.219,13.615,13.219c5.097,0,9.726-2.73,12.081-7.125
		c0.896-1.67,2.697-2.708,4.703-2.708c2.005,0,3.807,1.038,4.703,2.708c2.354,4.395,6.983,7.125,12.081,7.125
		c7.507,0,13.615-5.93,13.615-13.219S74.315,36.781,66.808,36.781z M66.808,61.219c-4.359,0-8.312-2.326-10.318-6.069
		c-1.244-2.322-3.722-3.764-6.465-3.764c-2.744,0-5.221,1.442-6.465,3.764c-2.006,3.743-5.96,6.069-10.318,6.069
		c-6.405,0-11.615-5.033-11.615-11.219s5.21-11.219,11.615-11.219h33.567c6.405,0,11.615,5.033,11.615,11.219
		S73.212,61.219,66.808,61.219z"/>
	<path d="M71.939,52.075L68.814,55.2c-0.391,0.391-0.391,1.023,0,1.414c0.195,0.195,0.451,0.293,0.707,0.293
		c0.256,0,0.512-0.098,0.707-0.293l3.125-3.125c0.391-0.391,0.391-1.023,0-1.414C72.962,51.685,72.33,51.685,71.939,52.075z"/>
	<path d="M71.79,47.388c-0.391-0.391-1.023-0.391-1.414,0l-6.25,6.25c-0.391,0.391-0.391,1.023,0,1.414
		c0.195,0.195,0.451,0.293,0.707,0.293c0.256,0,0.512-0.098,0.707-0.293l6.25-6.25C72.181,48.411,72.181,47.778,71.79,47.388z"/>
</g>
</svg>
