<?xml version="1.0" encoding="utf-8"?>
<!-- Generator: Adobe Illustrator 22.0.1, SVG Export Plug-In . SVG Version: 6.00 Build 0)  -->
<svg version="1.1" id="Layer_1" xmlns="http://www.w3.org/2000/svg" xmlns:xlink="http://www.w3.org/1999/xlink" x="0px" y="0px"
	 viewBox="0 0 100 100" style="enable-background:new 0 0 100 100;" xml:space="preserve">
<g>
	<path d="M74.817,55.327V39.813c0-1.756-0.735-3.994-2.318-5.161c0.311-1.335,0.484-2.766,0.484-4.319v-3.216
		c0-1.267-0.463-2.417-1.204-3.333h0.761c3.713,0,6.734-3.022,6.734-6.735v-0.28c0-3.713-3.021-6.734-6.734-6.734H27.46
		c-3.713,0-6.734,3.021-6.734,6.734v0.28c0,3.713,3.022,6.735,6.734,6.735h1.31c-1.084,1.144-1.754,2.684-1.754,4.38v2.169
		c0,1.336,0.119,2.588,0.349,3.762c-0.005,0.004-0.012,0.004-0.017,0.008c-1.488,1.124-2.166,3.747-2.166,5.709v15.533
		c-4.038,0.309-7.231,3.686-7.231,7.802v10.082c0,1.75,1.424,3.174,3.174,3.174h4.058v5.784c0,4.288,3.488,7.776,7.775,7.776h34.084
		c4.287,0,7.775-3.488,7.775-7.776v-5.784h3.786c1.899,0,3.445-1.545,3.445-3.445V62.756C82.049,58.724,78.823,55.438,74.817,55.327
		z M25.183,74.405h-4.058c-0.648,0-1.174-0.526-1.174-1.174V63.149c0-3.013,2.296-5.5,5.231-5.802V74.405z M64.719,12.035h7.821
		c2.61,0,4.734,2.124,4.734,4.734v0.28c0,2.611-2.124,4.735-4.734,4.735h-4.891h-2.931V12.035z M64.719,23.784h2.931
		c1.838,0,3.334,1.496,3.334,3.333v3.216c0,5.454-2.041,9.293-6.265,11.645V23.784z M37.281,12.035h25.438v9.749H37.281V12.035z
		 M63.719,50.413c1.154,0,2.093,0.938,2.093,2.092c0,1.154-0.938,2.093-2.093,2.093c-1.154,0-2.093-0.939-2.093-2.093
		C61.626,51.352,62.564,50.413,63.719,50.413z M37.281,23.784h25.438v19.137c-3.243,1.276-7.46,1.903-12.719,1.903
		c-5.258,0-9.476-0.627-12.719-1.903V23.784z M36.281,50.413c1.154,0,2.093,0.938,2.093,2.092c0,1.154-0.939,2.093-2.093,2.093
		c-1.154,0-2.093-0.939-2.093-2.093C34.188,51.352,35.127,50.413,36.281,50.413z M35.281,41.979
		c-4.223-2.353-6.265-6.191-6.265-11.645v-2.169c0-2.416,1.965-4.38,4.381-4.38h1.884V41.979z M27.46,21.784
		c-2.61,0-4.734-2.124-4.734-4.735v-0.28c0-2.61,2.124-4.734,4.734-4.734h7.821v9.749h-1.884H27.46z M72.817,82.189
		c0,3.185-2.591,5.776-5.775,5.776H32.958c-3.185,0-5.775-2.591-5.775-5.776v-1.333h45.635V82.189z M72.817,78.856H27.183V39.813
		c0-1.262,0.341-2.603,0.826-3.444c1.242,3.426,3.673,6.013,7.273,7.756v4.426c-1.772,0.449-3.093,2.045-3.093,3.954
		c0,2.257,1.836,4.093,4.093,4.093c2.257,0,4.093-1.836,4.093-4.093c0-1.91-1.321-3.505-3.093-3.954v-3.585
		c3.405,1.228,7.634,1.859,12.719,1.859c5.084,0,9.313-0.631,12.719-1.859v3.585c-1.772,0.449-3.093,2.045-3.093,3.954
		c0,2.257,1.836,4.093,4.093,4.093c2.257,0,4.093-1.836,4.093-4.093c0-1.91-1.321-3.505-3.093-3.954v-4.426
		c3.459-1.675,5.835-4.131,7.118-7.361c0.64,0.814,0.981,2.039,0.981,3.049V78.856z M80.049,72.96c0,0.797-0.648,1.445-1.445,1.445
		h-3.786V57.327c2.902,0.111,5.231,2.5,5.231,5.429V72.96z"/>
	<path d="M64.719,59.825H35.281c-0.553,0-1,0.448-1,1v6.021c0,4.606,3.748,8.354,8.354,8.354h14.729
		c4.606,0,8.355-3.748,8.355-8.354v-6.021C65.719,60.272,65.271,59.825,64.719,59.825z M57.364,73.2H42.636
		c-3.499,0-6.345-2.842-6.354-6.339h27.436C63.709,70.357,60.863,73.2,57.364,73.2z M63.719,64.861H36.281v-3.036h27.438V64.861z"/>
</g>
</svg>
