<?xml version="1.0" encoding="utf-8"?>
<!-- Generator: Adobe Illustrator 22.0.1, SVG Export Plug-In . SVG Version: 6.00 Build 0)  -->
<svg version="1.1" id="Layer_1" xmlns="http://www.w3.org/2000/svg" xmlns:xlink="http://www.w3.org/1999/xlink" x="0px" y="0px"
	 viewBox="0 0 100 100" style="enable-background:new 0 0 100 100;" xml:space="preserve">
<g>
	<path d="M89.602,10.252c-0.213-0.19-0.499-0.276-0.781-0.246l-25.842,3.045l-25.842-3.045c-0.078-0.009-0.156-0.009-0.234,0
		l-25.959,3.059c-0.503,0.06-0.883,0.486-0.883,0.993V89c0,0.286,0.122,0.558,0.336,0.748C10.581,89.911,10.818,90,11.061,90
		c0.039,0,0.078-0.002,0.117-0.007l25.842-3.045l25.842,3.045c0.078,0.009,0.156,0.009,0.234,0l25.959-3.059
		c0.503-0.06,0.883-0.486,0.883-0.993V11C89.938,10.714,89.816,10.442,89.602,10.252z M36.02,85.052l-23.959,2.823V84.27
		c0.446,0.088,0.974,0.155,1.572,0.155c0.878,0,1.894-0.142,2.971-0.564c2.937-1.151,5.312-3.945,7.059-8.305
		c2.976-7.425,9.719-9.358,12.357-9.838V85.052z M36.02,33.334c-0.311-0.232-0.621-0.465-0.943-0.684
		c-0.456-0.311-1.078-0.193-1.389,0.264c-0.311,0.457-0.193,1.079,0.264,1.39c0.725,0.494,1.416,1.028,2.068,1.584v27.803
		c-2.74,0.442-10.739,2.453-14.214,11.121c-1.525,3.807-3.508,6.22-5.893,7.172c-1.661,0.662-3.095,0.444-3.852,0.237V28.595
		c0.472-0.014,1.341-0.026,2.504,0.018c0.014,0.001,0.026,0.001,0.04,0.001c0.534,0,0.978-0.422,0.998-0.961
		c0.022-0.552-0.408-1.017-0.96-1.038c-1.174-0.046-2.062-0.036-2.582-0.021V14.948l23.959-2.824V33.334z M61.979,69.639
		c-0.137,0.115-0.255,0.253-0.316,0.435c-0.137,0.405,0.005,0.831,0.316,1.087v16.714L38.02,85.052V65.412
		c1.902-0.441,6.316-2.107,9.8-8.322c0.121,0.05,0.247,0.085,0.379,0.085c0.143,0,0.288-0.031,0.427-0.096
		c0.499-0.236,0.712-0.832,0.476-1.332c-0.095-0.201-0.192-0.415-0.288-0.623c0.281-0.615,0.554-1.262,0.815-1.951
		c3.237-8.564,9.917-9.557,12.35-9.625V69.639z M61.979,41.565c-2.867,0.109-10.598,1.319-14.221,10.903
		c-0.034,0.09-0.07,0.174-0.104,0.263c-0.283-0.274-0.713-0.369-1.097-0.2c-0.506,0.222-0.736,0.812-0.515,1.317
		c0.19,0.434,0.378,0.852,0.564,1.264c-2.962,5.923-6.76,7.708-8.586,8.24V12.125l23.959,2.823V41.565z M87.938,70.563
		c-0.349,0.041-0.892,0.101-1.602,0.169c-0.55,0.053-0.952,0.541-0.899,1.091c0.049,0.518,0.484,0.905,0.994,0.905
		c0.031,0,0.063-0.001,0.097-0.004c0.583-0.056,1.041-0.1,1.41-0.143v12.472l-23.959,2.823V71.838
		c0.428,0.112,0.861,0.221,1.315,0.318c0.07,0.015,0.142,0.022,0.211,0.022c0.461,0,0.876-0.321,0.977-0.79
		c0.116-0.54-0.228-1.072-0.768-1.188c-0.609-0.131-1.182-0.28-1.735-0.437V43.556c2.428,0.09,9.144,1.135,12.35,9.618
		c3.582,9.476,9.357,11.716,11.609,12.238V70.563z M87.938,63.35c-2.078-0.605-6.694-2.826-9.738-10.883
		c-3.622-9.582-11.354-10.794-14.221-10.903V14.948l23.959-2.823V63.35z"/>
	<path d="M71.47,34.995c-0.39,0.392-0.388,1.025,0.004,1.415c0.391,0.39,1.025,0.388,1.414-0.003l3.188-3.203v7.848
		c0,0.552,0.447,1,1,1c0.553,0,1-0.448,1-1v-7.848l3.187,3.203c0.195,0.196,0.452,0.294,0.709,0.294c0.255,0,0.51-0.097,0.705-0.291
		c0.392-0.39,0.394-1.023,0.004-1.415l-4.604-4.627v-3.43l3.187,3.203c0.195,0.196,0.452,0.295,0.709,0.295
		c0.255,0,0.51-0.097,0.705-0.291c0.392-0.39,0.394-1.023,0.004-1.414l-4.604-4.627v-3.43l3.187,3.203
		c0.195,0.196,0.452,0.294,0.709,0.294c0.255,0,0.51-0.097,0.705-0.291c0.392-0.39,0.394-1.023,0.004-1.415l-4.896-4.92
		c0,0-0.001,0-0.001-0.001c-0.091-0.092-0.2-0.165-0.322-0.216c-0.121-0.051-0.252-0.078-0.386-0.078
		c-0.134,0-0.265,0.027-0.386,0.078c-0.121,0.051-0.23,0.124-0.322,0.216c0,0-0.001,0-0.001,0.001l-4.896,4.92
		c-0.39,0.392-0.388,1.025,0.004,1.415c0.391,0.39,1.025,0.388,1.414-0.003l3.188-3.203v3.43l-4.605,4.628
		c-0.39,0.392-0.388,1.025,0.004,1.414c0.391,0.39,1.025,0.388,1.414-0.003l3.188-3.203v3.43L71.47,34.995z"/>
	<path d="M18.436,56.631c-0.39,0.392-0.388,1.025,0.004,1.414c0.195,0.194,0.45,0.291,0.705,0.291c0.257,0,0.514-0.098,0.709-0.294
		l3.187-3.203v7.848c0,0.552,0.447,1,1,1c0.553,0,1-0.448,1-1v-7.848l3.187,3.203c0.389,0.391,1.024,0.392,1.414,0.003
		c0.392-0.39,0.393-1.023,0.004-1.414l-4.605-4.628v-3.43l3.187,3.203c0.389,0.391,1.024,0.392,1.414,0.003
		c0.392-0.39,0.393-1.023,0.004-1.415l-4.605-4.627v-3.43l3.187,3.203c0.389,0.391,1.024,0.392,1.414,0.003
		c0.392-0.39,0.393-1.023,0.004-1.415l-4.896-4.92c0,0-0.001,0-0.001-0.001c-0.181-0.181-0.431-0.294-0.708-0.294
		c-0.277,0-0.527,0.112-0.708,0.294c0,0-0.001,0-0.001,0.001l-4.896,4.92c-0.39,0.392-0.388,1.025,0.004,1.415
		c0.195,0.194,0.45,0.291,0.705,0.291c0.257,0,0.514-0.098,0.709-0.294l3.187-3.203v3.43l-4.605,4.627
		c-0.39,0.392-0.388,1.025,0.004,1.415c0.195,0.194,0.45,0.291,0.705,0.291c0.257,0,0.514-0.098,0.709-0.294l3.187-3.203v3.43
		L18.436,56.631z"/>
	<path d="M41.004,41.978c0.183,0.332,0.524,0.519,0.878,0.519c0.163,0,0.328-0.04,0.48-0.124c0.484-0.266,0.661-0.874,0.396-1.358
		c-0.504-0.917-1.07-1.804-1.684-2.636c-0.326-0.445-0.955-0.539-1.397-0.212c-0.445,0.328-0.54,0.954-0.212,1.398
		C40.024,40.325,40.543,41.137,41.004,41.978z"/>
	<path d="M78.426,71.179c-0.553,0.009-0.992,0.464-0.983,1.017c0.01,0.547,0.455,0.983,1,0.983c0.005,0,0.011,0,0.017,0
		c1.059-0.018,2.075-0.053,3.029-0.098c0.552-0.026,0.978-0.494,0.952-1.046c-0.026-0.551-0.499-0.962-1.046-0.952
		C80.46,71.127,79.463,71.162,78.426,71.179z"/>
	<path d="M57.546,69.277c0.155,0.087,0.323,0.129,0.489,0.129c0.35,0,0.689-0.184,0.873-0.51c0.271-0.481,0.1-1.091-0.382-1.361
		c-0.854-0.48-1.621-0.997-2.343-1.579c-0.433-0.347-1.061-0.277-1.406,0.151c-0.347,0.43-0.279,1.06,0.15,1.406
		C55.737,68.165,56.594,68.742,57.546,69.277z"/>
	<path d="M44.09,49.222c0.159,0.387,0.532,0.622,0.926,0.622c0.127,0,0.255-0.024,0.379-0.075c0.512-0.209,0.756-0.793,0.547-1.304
		c-0.363-0.885-0.737-1.808-1.124-2.772c-0.205-0.512-0.788-0.76-1.3-0.556c-0.513,0.206-0.762,0.788-0.556,1.301
		C43.351,47.405,43.727,48.333,44.09,49.222z"/>
	<path d="M73.486,71.117c-1.019-0.045-2.01-0.113-2.945-0.201c-0.563-0.052-1.038,0.353-1.09,0.902
		c-0.051,0.55,0.353,1.037,0.902,1.089c0.969,0.091,1.992,0.161,3.043,0.207c0.016,0.001,0.03,0.001,0.046,0.001
		c0.531,0,0.975-0.419,0.998-0.956C74.465,71.609,74.038,71.142,73.486,71.117z"/>
	<path d="M51.37,60.094c-0.281-0.476-0.895-0.635-1.369-0.353c-0.476,0.281-0.634,0.894-0.354,1.37
		c0.567,0.962,1.122,1.809,1.693,2.589c0.196,0.267,0.5,0.409,0.808,0.409c0.205,0,0.412-0.063,0.59-0.193
		c0.446-0.327,0.542-0.953,0.216-1.398C52.422,61.792,51.904,60.999,51.37,60.094z"/>
	<path d="M19.445,29.06c0.975,0.141,1.947,0.315,2.891,0.515c0.07,0.015,0.14,0.022,0.209,0.022c0.462,0,0.877-0.322,0.978-0.792
		c0.114-0.54-0.23-1.071-0.77-1.186c-0.986-0.21-2.002-0.391-3.02-0.538c-0.553-0.082-1.055,0.3-1.133,0.846
		C18.519,28.474,18.898,28.981,19.445,29.06z"/>
	<path d="M27.034,30.881c0.934,0.325,1.843,0.688,2.705,1.078c0.134,0.061,0.273,0.089,0.411,0.089c0.381,0,0.745-0.218,0.912-0.588
		c0.228-0.503,0.004-1.096-0.499-1.323c-0.916-0.414-1.881-0.799-2.869-1.144c-0.521-0.181-1.091,0.094-1.274,0.615
		C26.238,30.128,26.514,30.699,27.034,30.881z"/>
</g>
</svg>
