<?xml version="1.0" encoding="utf-8"?>
<!-- Generator: Adobe Illustrator 22.0.1, SVG Export Plug-In . SVG Version: 6.00 Build 0)  -->
<svg version="1.1" id="Layer_1" xmlns="http://www.w3.org/2000/svg" xmlns:xlink="http://www.w3.org/1999/xlink" x="0px" y="0px"
	 viewBox="0 0 100 100" style="enable-background:new 0 0 100 100;" xml:space="preserve">
<g>
	<path d="M89.502,81.957l-8.962-5.191L62.92,48.903l1.568-0.992c2.758-1.744,3.583-5.407,1.838-8.164l-3.051-4.826
		c-1.743-2.758-5.405-3.584-8.165-1.839l-1.568,0.991l-2.309-3.652l1.568-0.992c2.758-1.744,3.583-5.407,1.839-8.165l-3.051-4.825
		c-1.745-2.76-5.407-3.585-8.166-1.839l-1.568,0.991l-3.242-5.126c-0.296-0.467-0.913-0.607-1.38-0.311
		c-0.467,0.295-0.606,0.912-0.311,1.379l3.242,5.126l-1.568,0.991c-1.336,0.845-2.264,2.159-2.611,3.702
		c-0.347,1.542-0.073,3.127,0.771,4.463l3.052,4.826c1.125,1.779,3.047,2.754,5.012,2.754c1.081,0,2.174-0.296,3.154-0.915
		l1.567-0.991l2.309,3.652l-1.568,0.992c-2.758,1.744-3.583,5.407-1.839,8.165l3.052,4.825c1.125,1.779,3.048,2.754,5.012,2.754
		c1.08,0,2.174-0.296,3.154-0.915l1.567-0.991l15.576,24.632L49.229,58.629l0.93-1.605c1.636-2.824,0.669-6.452-2.155-8.088
		l-4.94-2.861h0c-1.368-0.793-2.963-1.005-4.49-0.598c-1.527,0.407-2.805,1.385-3.597,2.753l-0.929,1.604l-3.74-2.166l0.93-1.605
		c1.636-2.824,0.669-6.452-2.154-8.087l-4.94-2.862h0c-2.824-1.639-6.453-0.669-8.087,2.155l-0.93,1.605l-3.623-2.099
		c-0.48-0.277-1.09-0.114-1.367,0.364c-0.277,0.478-0.114,1.09,0.364,1.366l3.624,2.099l-0.929,1.605
		c-1.635,2.823-0.669,6.451,2.155,8.088l4.94,2.861c0.931,0.54,1.95,0.796,2.956,0.796c2.044,0,4.036-1.059,5.131-2.951l0.93-1.605
		l3.74,2.166l-0.93,1.605c-0.792,1.367-1.005,2.962-0.598,4.489c0.407,1.527,1.385,2.806,2.753,3.598l4.94,2.861
		c0.914,0.529,1.929,0.801,2.957,0.8c0.511,0,1.026-0.066,1.533-0.201c1.528-0.407,2.806-1.385,3.598-2.753l0.93-1.605
		l30.887,17.891l7.135,11.283C86.439,89.835,86.763,90,87.095,90c0.183,0,0.368-0.05,0.534-0.155
		c0.467-0.295,0.605-0.912,0.311-1.379l-5.092-8.052l5.652,3.274c0.158,0.092,0.331,0.135,0.5,0.135
		c0.345,0,0.681-0.179,0.866-0.499C90.143,82.846,89.979,82.233,89.502,81.957z M48.466,26.045c-0.295-0.467-0.913-0.607-1.38-0.311
		c-0.467,0.295-0.605,0.912-0.311,1.379l1.699,2.687l-1.567,0.991c-1.826,1.155-4.252,0.608-5.406-1.217l-3.052-4.826
		c-0.56-0.885-0.741-1.934-0.511-2.955c0.23-1.021,0.844-1.892,1.729-2.451l4.826-3.052c0.648-0.409,1.372-0.605,2.087-0.605
		c1.3,0,2.573,0.645,3.318,1.823l3.051,4.825c1.155,1.826,0.608,4.252-1.218,5.407l-1.567,0.991L48.466,26.045z M60.274,44.719
		c-0.296-0.467-0.913-0.608-1.38-0.311c-0.467,0.295-0.605,0.912-0.31,1.379l1.577,2.494l-1.567,0.991
		c-1.827,1.154-4.252,0.609-5.406-1.217l-3.052-4.825c-1.155-1.826-0.608-4.252,1.218-5.407l4.825-3.051
		c0.648-0.41,1.373-0.605,2.088-0.605c1.3,0,2.573,0.645,3.318,1.822l3.051,4.826c1.155,1.826,0.608,4.251-1.217,5.406l-1.568,0.991
		L60.274,44.719z M29.506,45.062l-0.93,1.605l-2.75-1.593c-0.479-0.278-1.089-0.113-1.367,0.364
		c-0.277,0.478-0.114,1.09,0.364,1.366l2.751,1.593l-0.93,1.605c-1.083,1.869-3.484,2.512-5.355,1.427l-4.94-2.861
		c-1.869-1.084-2.509-3.486-1.427-5.356l1.43-2.469c0,0,0,0,0,0c0,0,0,0,0,0l1.431-2.471c0.726-1.253,2.044-1.953,3.397-1.953
		c0.666,0,1.341,0.169,1.958,0.526h0l4.941,2.862c0.905,0.524,1.553,1.37,1.822,2.382C30.171,43.1,30.031,44.155,29.506,45.062z
		 M48.428,56.022l-0.929,1.604l-2.554-1.479c-0.479-0.278-1.09-0.113-1.367,0.364c-0.277,0.478-0.114,1.09,0.364,1.366l2.554,1.48
		l-0.93,1.605c-0.524,0.905-1.371,1.553-2.382,1.822c-1.01,0.268-2.067,0.129-2.973-0.396l-4.94-2.861
		c-0.905-0.524-1.553-1.37-1.822-2.382c-0.269-1.012-0.129-2.067,0.396-2.973l2.862-4.941c0.525-0.905,1.371-1.553,2.382-1.822
		c0.336-0.09,0.677-0.134,1.015-0.134c0.681,0,1.353,0.179,1.957,0.529h0.001l4.94,2.861c0.905,0.524,1.553,1.37,1.822,2.382
		C49.093,54.061,48.953,55.116,48.428,56.022z"/>
	<path d="M16.384,24.326c0.553,0.17,1.006,0.545,1.276,1.056c0.271,0.512,0.326,1.098,0.156,1.651
		c-0.17,0.553-0.545,1.006-1.057,1.276c-0.511,0.272-1.097,0.327-1.65,0.155c-0.529-0.164-1.087,0.134-1.25,0.662
		c-0.163,0.527,0.133,1.087,0.661,1.25c0.405,0.124,0.819,0.186,1.232,0.186c0.67,0,1.334-0.164,1.943-0.486
		c0.984-0.521,1.706-1.392,2.033-2.456c0.328-1.063,0.222-2.19-0.299-3.174c-0.52-0.984-1.393-1.706-2.456-2.033
		c-0.553-0.17-1.007-0.546-1.277-1.057c-0.27-0.512-0.326-1.098-0.156-1.651c0.352-1.142,1.568-1.784,2.708-1.432
		c0.527,0.161,1.087-0.134,1.25-0.662c0.163-0.527-0.133-1.087-0.661-1.25c-2.198-0.676-4.532,0.56-5.208,2.756
		c-0.328,1.063-0.222,2.19,0.299,3.174C14.448,23.276,15.32,23.998,16.384,24.326z"/>
	<path d="M24.81,24.326c0.553,0.17,1.006,0.545,1.276,1.056c0.271,0.512,0.326,1.098,0.156,1.651
		c-0.17,0.553-0.545,1.006-1.057,1.276c-0.512,0.272-1.097,0.327-1.65,0.155c-0.527-0.164-1.088,0.134-1.25,0.662
		c-0.163,0.527,0.133,1.087,0.661,1.25c0.405,0.124,0.819,0.186,1.231,0.186c0.67,0,1.334-0.164,1.943-0.486
		c0.984-0.521,1.706-1.392,2.033-2.456c0.328-1.063,0.222-2.19-0.299-3.174c-0.52-0.984-1.393-1.706-2.456-2.033
		c-0.553-0.17-1.007-0.546-1.277-1.057c-0.27-0.512-0.326-1.098-0.156-1.651c0.352-1.142,1.568-1.784,2.708-1.432
		c0.526,0.161,1.087-0.134,1.25-0.662c0.162-0.527-0.133-1.087-0.661-1.25c-2.198-0.676-4.532,0.56-5.207,2.756
		c-0.328,1.063-0.222,2.19,0.299,3.174C22.873,23.276,23.746,23.998,24.81,24.326z"/>
</g>
</svg>
