<?xml version="1.0" encoding="utf-8"?>
<!-- Generator: Adobe Illustrator 22.0.1, SVG Export Plug-In . SVG Version: 6.00 Build 0)  -->
<svg version="1.1" id="Layer_1" xmlns="http://www.w3.org/2000/svg" xmlns:xlink="http://www.w3.org/1999/xlink" x="0px" y="0px"
	 viewBox="0 0 100 100" style="enable-background:new 0 0 100 100;" xml:space="preserve">
<g>
	<path d="M88.984,83.616c-0.552,0-1,0.448-1,1c0,1.853-1.495,3.36-3.332,3.36s-3.331-1.507-3.331-3.36c0-0.552-0.448-1-1-1
		c-0.552,0-1,0.448-1,1c0,1.853-1.495,3.36-3.332,3.36c-1.837,0-3.331-1.507-3.331-3.36c0-0.552-0.448-1-1-1c-0.552,0-1,0.448-1,1
		c0,1.853-1.495,3.36-3.332,3.36c-1.837,0-3.332-1.507-3.332-3.36c0-0.552-0.448-1-1-1c-0.552,0-1,0.448-1,1
		c0,1.853-1.495,3.36-3.332,3.36c-1.837,0-3.332-1.507-3.332-3.36c0-0.552-0.448-1-1-1c-0.552,0-1,0.448-1,1
		c0,1.853-1.495,3.36-3.331,3.36c-1.837,0-3.332-1.507-3.332-3.36c0-0.552-0.448-1-1-1c-0.552,0-1,0.448-1,1
		c0,1.853-1.495,3.36-3.332,3.36c-1.837,0-3.332-1.507-3.332-3.36c0-0.552-0.448-1-1-1c-0.552,0-1,0.448-1,1
		c0,1.853-1.495,3.36-3.332,3.36c-1.837,0-3.332-1.507-3.332-3.36c0-0.552-0.448-1-1-1c-0.552,0-1,0.448-1,1
		c0,1.853-1.495,3.36-3.331,3.36c-1.837,0-3.332-1.507-3.332-3.36c0-0.552-0.448-1-1-1c-0.552,0-1,0.448-1,1
		c0,1.853-1.495,3.36-3.332,3.36s-3.332-1.507-3.332-3.36c0-0.552-0.448-1-1-1c-0.552,0-1,0.448-1,1c0,2.956,2.392,5.36,5.332,5.36
		c1.788,0,3.364-0.897,4.332-2.258c0.968,1.361,2.544,2.258,4.332,2.258c1.788,0,3.364-0.897,4.332-2.258
		c0.968,1.362,2.544,2.258,4.332,2.258c1.788,0,3.364-0.897,4.332-2.258c0.968,1.361,2.544,2.258,4.332,2.258
		c1.788,0,3.364-0.897,4.332-2.258c0.968,1.361,2.544,2.258,4.332,2.258c1.788,0,3.364-0.897,4.331-2.258
		c0.968,1.361,2.544,2.258,4.332,2.258s3.364-0.897,4.332-2.258c0.968,1.362,2.544,2.258,4.332,2.258
		c1.788,0,3.364-0.897,4.332-2.258c0.968,1.361,2.544,2.258,4.331,2.258c1.788,0,3.364-0.897,4.332-2.258
		c0.968,1.361,2.544,2.258,4.331,2.258c2.94,0,5.332-2.405,5.332-5.36C89.984,84.064,89.537,83.616,88.984,83.616z"/>
	<path d="M88.984,71.856c-0.552,0-1,0.448-1,1c0,1.853-1.495,3.36-3.332,3.36s-3.331-1.507-3.331-3.36c0-0.552-0.448-1-1-1
		c-0.552,0-1,0.448-1,1c0,1.853-1.495,3.36-3.332,3.36c-1.837,0-3.331-1.507-3.331-3.36c0-0.552-0.448-1-1-1c-0.552,0-1,0.448-1,1
		c0,1.853-1.495,3.36-3.332,3.36c-1.837,0-3.332-1.507-3.332-3.36c0-0.552-0.448-1-1-1c-0.552,0-1,0.448-1,1
		c0,1.853-1.495,3.36-3.332,3.36c-1.837,0-3.332-1.507-3.332-3.36c0-0.552-0.448-1-1-1c-0.552,0-1,0.448-1,1
		c0,1.853-1.495,3.36-3.331,3.36c-1.837,0-3.332-1.507-3.332-3.36c0-0.552-0.448-1-1-1c-0.552,0-1,0.448-1,1
		c0,1.853-1.495,3.36-3.332,3.36c-1.837,0-3.332-1.507-3.332-3.36c0-0.552-0.448-1-1-1c-0.552,0-1,0.448-1,1
		c0,1.853-1.495,3.36-3.332,3.36c-1.837,0-3.332-1.507-3.332-3.36c0-0.552-0.448-1-1-1c-0.552,0-1,0.448-1,1
		c0,1.853-1.495,3.36-3.331,3.36c-1.837,0-3.332-1.507-3.332-3.36c0-0.552-0.448-1-1-1c-0.552,0-1,0.448-1,1
		c0,1.853-1.495,3.36-3.332,3.36s-3.332-1.507-3.332-3.36c0-0.552-0.448-1-1-1c-0.552,0-1,0.448-1,1c0,2.956,2.392,5.36,5.332,5.36
		c1.788,0,3.364-0.896,4.332-2.258c0.968,1.361,2.544,2.258,4.332,2.258c1.788,0,3.364-0.896,4.332-2.258
		c0.968,1.362,2.544,2.258,4.332,2.258c1.788,0,3.364-0.896,4.332-2.258c0.968,1.361,2.544,2.258,4.332,2.258
		c1.788,0,3.364-0.896,4.332-2.258c0.968,1.361,2.544,2.258,4.332,2.258c1.788,0,3.364-0.896,4.331-2.258
		c0.968,1.361,2.544,2.258,4.332,2.258s3.364-0.896,4.332-2.258c0.968,1.362,2.544,2.258,4.332,2.258
		c1.788,0,3.364-0.896,4.332-2.258c0.968,1.361,2.544,2.258,4.331,2.258c1.788,0,3.364-0.896,4.332-2.258
		c0.968,1.361,2.544,2.258,4.331,2.258c2.94,0,5.332-2.405,5.332-5.36C89.984,72.304,89.537,71.856,88.984,71.856z"/>
	<path d="M88.984,60.097c-0.552,0-1,0.448-1,1c0,1.853-1.495,3.36-3.332,3.36s-3.331-1.507-3.331-3.36c0-0.552-0.448-1-1-1
		c-0.552,0-1,0.448-1,1c0,1.853-1.495,3.36-3.332,3.36c-1.837,0-3.331-1.507-3.331-3.36c0-0.552-0.448-1-1-1c-0.552,0-1,0.448-1,1
		c0,1.853-1.495,3.36-3.332,3.36c-1.837,0-3.332-1.507-3.332-3.36c0-0.552-0.448-1-1-1c-0.552,0-1,0.448-1,1
		c0,1.853-1.495,3.36-3.332,3.36c-1.837,0-3.332-1.507-3.332-3.36c0-0.552-0.448-1-1-1c-0.552,0-1,0.448-1,1
		c0,1.853-1.495,3.36-3.331,3.36c-1.837,0-3.332-1.507-3.332-3.36c0-0.552-0.448-1-1-1c-0.552,0-1,0.448-1,1
		c0,1.853-1.495,3.36-3.332,3.36c-1.837,0-3.332-1.507-3.332-3.36c0-0.552-0.448-1-1-1c-0.552,0-1,0.448-1,1
		c0,1.853-1.495,3.36-3.332,3.36c-1.837,0-3.332-1.507-3.332-3.36c0-0.552-0.448-1-1-1c-0.552,0-1,0.448-1,1
		c0,1.853-1.495,3.36-3.331,3.36c-1.837,0-3.332-1.507-3.332-3.36c0-0.552-0.448-1-1-1c-0.552,0-1,0.448-1,1
		c0,1.853-1.495,3.36-3.332,3.36s-3.332-1.507-3.332-3.36c0-0.552-0.448-1-1-1c-0.552,0-1,0.448-1,1c0,2.956,2.392,5.36,5.332,5.36
		c1.788,0,3.364-0.896,4.332-2.258c0.968,1.362,2.544,2.258,4.332,2.258c1.788,0,3.364-0.896,4.332-2.258
		c0.968,1.362,2.544,2.258,4.332,2.258c1.788,0,3.364-0.896,4.332-2.258c0.968,1.362,2.544,2.258,4.332,2.258
		c1.788,0,3.364-0.896,4.332-2.258c0.968,1.362,2.544,2.258,4.332,2.258c1.788,0,3.364-0.896,4.331-2.258
		c0.968,1.362,2.544,2.258,4.332,2.258s3.364-0.896,4.332-2.258c0.968,1.362,2.544,2.258,4.332,2.258
		c1.788,0,3.364-0.896,4.332-2.258c0.968,1.362,2.544,2.258,4.331,2.258c1.788,0,3.364-0.896,4.332-2.258
		c0.968,1.362,2.544,2.258,4.331,2.258c2.94,0,5.332-2.405,5.332-5.36C89.984,60.544,89.537,60.097,88.984,60.097z"/>
	<path d="M11,53.966h78c0.552,0,1-0.448,1-1c0-0.552-0.448-1-1-1h-7.679V40.564l5.519,5.547c0.196,0.196,0.452,0.294,0.709,0.294
		c0.255,0,0.51-0.097,0.706-0.291c0.391-0.39,0.393-1.023,0.003-1.415l-6.938-6.971v-3.434l5.519,5.547
		c0.196,0.196,0.452,0.294,0.709,0.294c0.255,0,0.51-0.097,0.706-0.291c0.391-0.39,0.393-1.023,0.003-1.415l-6.938-6.971v-3.435
		l5.519,5.547c0.196,0.196,0.452,0.294,0.709,0.294c0.255,0,0.51-0.097,0.706-0.291c0.391-0.39,0.393-1.023,0.003-1.415
		l-7.229-7.264c-0.001,0-0.001-0.001-0.002-0.001c-0.181-0.181-0.431-0.293-0.707-0.293c-0.276,0-0.527,0.112-0.708,0.293
		c0,0-0.001,0.001-0.001,0.001l-7.229,7.264c-0.39,0.392-0.388,1.025,0.003,1.415c0.392,0.389,1.025,0.388,1.415-0.003l5.52-5.547
		v3.435l-6.938,6.971c-0.39,0.392-0.388,1.025,0.003,1.415c0.393,0.39,1.025,0.388,1.415-0.003l5.52-5.547v3.434L72.384,44.7
		c-0.39,0.392-0.388,1.025,0.003,1.415c0.393,0.39,1.025,0.388,1.415-0.003l5.52-5.547v11.402h-10.87L42.688,10.496
		c-0.365-0.587-1.334-0.587-1.699,0L15.226,51.966H11c-0.552,0-1,0.448-1,1C10,53.519,10.448,53.966,11,53.966z M41.839,12.918
		l8.4,13.521l-2.116,2.69l-2.362-3.001c-0.19-0.241-0.479-0.382-0.786-0.382h0c-0.307,0-0.596,0.141-0.786,0.382l-2.356,2.998
		l-2.354-2.998c-0.38-0.482-1.193-0.482-1.573,0l-2.354,2.998l-2.111-2.688L41.839,12.918z M32.316,28.248l2.448,3.117
		c0.38,0.483,1.193,0.483,1.573,0l2.354-2.999l2.354,2.999c0.19,0.241,0.479,0.382,0.787,0.382c0.307,0,0.597-0.141,0.787-0.382
		l2.356-3l2.361,3c0.189,0.241,0.479,0.382,0.786,0.382c0.307,0,0.596-0.141,0.786-0.382l2.453-3.118l14.735,23.719H17.581
		L32.316,28.248z"/>
</g>
</svg>
