<?xml version="1.0" encoding="utf-8"?>
<!-- Generator: Adobe Illustrator 22.0.1, SVG Export Plug-In . SVG Version: 6.00 Build 0)  -->
<svg version="1.1" id="Layer_1" xmlns="http://www.w3.org/2000/svg" xmlns:xlink="http://www.w3.org/1999/xlink" x="0px" y="0px"
	 viewBox="0 0 100 100" style="enable-background:new 0 0 100 100;" xml:space="preserve">
<g>
	<path d="M16.571,80.531c2.35,0,4.409-1.244,5.571-3.104c1.162,1.86,3.222,3.104,5.571,3.104c2.35,0,4.41-1.244,5.572-3.104
		c1.162,1.86,3.222,3.104,5.571,3.104c2.35,0,4.409-1.244,5.571-3.104c1.162,1.86,3.222,3.104,5.571,3.104s4.409-1.244,5.571-3.104
		c1.162,1.86,3.222,3.104,5.571,3.104c2.35,0,4.409-1.244,5.571-3.104c1.162,1.86,3.222,3.104,5.572,3.104
		c2.35,0,4.41-1.244,5.571-3.104c1.162,1.86,3.222,3.104,5.571,3.104c3.623,0,6.571-2.948,6.571-6.571c0-0.552-0.447-1-1-1
		s-1,0.448-1,1c0,2.521-2.051,4.571-4.571,4.571s-4.571-2.051-4.571-4.571c0-0.552-0.447-1-1-1c-0.553,0-1,0.448-1,1
		c0,2.521-2.051,4.571-4.571,4.571c-2.521,0-4.572-2.051-4.572-4.571c0-0.552-0.447-1-1-1c-0.553,0-1,0.448-1,1
		c0,2.521-2.051,4.571-4.571,4.571s-4.571-2.051-4.571-4.571c0-0.552-0.447-1-1-1s-1,0.448-1,1c0,2.521-2.051,4.571-4.571,4.571
		s-4.571-2.051-4.571-4.571c0-0.552-0.447-1-1-1s-1,0.448-1,1c0,2.521-2.051,4.571-4.571,4.571s-4.571-2.051-4.571-4.571
		c0-0.552-0.447-1-1-1c-0.553,0-1,0.448-1,1c0,2.521-2.051,4.571-4.572,4.571c-2.521,0-4.571-2.051-4.571-4.571c0-0.552-0.447-1-1-1
		c-0.553,0-1,0.448-1,1c0,2.521-2.051,4.571-4.571,4.571S12,76.48,12,73.96c0-0.552-0.447-1-1-1s-1,0.448-1,1
		C10,77.583,12.948,80.531,16.571,80.531z"/>
	<path d="M89,82.429c-0.553,0-1,0.448-1,1C88,85.949,85.949,88,83.429,88s-4.571-2.051-4.571-4.571c0-0.552-0.447-1-1-1
		c-0.553,0-1,0.448-1,1c0,2.521-2.051,4.571-4.571,4.571c-2.521,0-4.572-2.051-4.572-4.571c0-0.552-0.447-1-1-1
		c-0.553,0-1,0.448-1,1c0,2.521-2.051,4.571-4.571,4.571s-4.571-2.051-4.571-4.571c0-0.552-0.447-1-1-1s-1,0.448-1,1
		C54.571,85.949,52.521,88,50,88s-4.571-2.051-4.571-4.571c0-0.552-0.447-1-1-1s-1,0.448-1,1c0,2.521-2.051,4.571-4.571,4.571
		s-4.571-2.051-4.571-4.571c0-0.552-0.447-1-1-1c-0.553,0-1,0.448-1,1c0,2.521-2.051,4.571-4.572,4.571
		c-2.521,0-4.571-2.051-4.571-4.571c0-0.552-0.447-1-1-1c-0.553,0-1,0.448-1,1c0,2.521-2.051,4.571-4.571,4.571S12,85.949,12,83.429
		c0-0.552-0.447-1-1-1s-1,0.448-1,1C10,87.052,12.948,90,16.571,90c2.35,0,4.409-1.244,5.571-3.104
		C23.304,88.756,25.364,90,27.714,90c2.35,0,4.41-1.244,5.572-3.104C34.448,88.756,36.508,90,38.857,90
		c2.35,0,4.409-1.244,5.571-3.104C45.591,88.756,47.65,90,50,90s4.409-1.244,5.571-3.104C56.733,88.756,58.793,90,61.143,90
		c2.35,0,4.409-1.244,5.571-3.104C67.876,88.756,69.936,90,72.286,90c2.35,0,4.41-1.244,5.571-3.104
		C79.019,88.756,81.079,90,83.429,90C87.052,90,90,87.052,90,83.429C90,82.877,89.553,82.429,89,82.429z"/>
	<path d="M80.28,29.752c4.204,0,8.027-2.649,9.513-6.59c0.139-0.368,0.049-0.782-0.229-1.06c-0.278-0.277-0.693-0.368-1.06-0.229
		c-0.937,0.353-1.905,0.532-2.879,0.532c-4.507,0-8.174-3.667-8.174-8.174c0-0.975,0.179-1.943,0.532-2.879
		c0.139-0.367,0.05-0.782-0.229-1.06c-0.276-0.278-0.693-0.369-1.06-0.229c-3.941,1.486-6.59,5.309-6.59,9.513
		C70.106,25.188,74.67,29.752,80.28,29.752z M75.537,12.934c-0.057,0.43-0.085,0.863-0.085,1.298c0,5.61,4.563,10.174,10.174,10.174
		c0.435,0,0.867-0.028,1.298-0.085c-1.512,2.109-3.982,3.431-6.644,3.431c-4.507,0-8.174-3.667-8.174-8.174
		C72.106,16.917,73.428,14.446,75.537,12.934z"/>
	<path d="M16.806,69.307c0,0.001,0,0.002,0.001,0.002l0.004,0.013c0.002,0.006,0.007,0.011,0.009,0.017
		c0.022,0.071,0.05,0.142,0.089,0.208c0.019,0.031,0.045,0.056,0.066,0.085c0.017,0.023,0.032,0.044,0.051,0.065
		c0.078,0.088,0.167,0.163,0.27,0.219c0.004,0.002,0.006,0.006,0.01,0.008c0.041,0.021,0.085,0.033,0.128,0.048
		c0.03,0.011,0.057,0.025,0.088,0.033c0.081,0.021,0.164,0.033,0.248,0.033h64.002c0.001,0,0.002,0,0.003,0
		c0.006,0,0.013-0.003,0.019-0.003c0.091-0.002,0.179-0.016,0.264-0.042c0.029-0.009,0.054-0.023,0.082-0.034
		c0.061-0.024,0.12-0.052,0.175-0.087c0.029-0.019,0.055-0.04,0.082-0.062c0.048-0.039,0.092-0.081,0.132-0.128
		c0.024-0.027,0.046-0.055,0.066-0.085c0.012-0.018,0.029-0.033,0.04-0.052c0.025-0.041,0.038-0.087,0.056-0.131
		c0.008-0.02,0.023-0.036,0.03-0.058l3.093-9.149c0.177-0.523-0.104-1.091-0.627-1.267c-0.523-0.178-1.091,0.104-1.268,0.627
		l-2.366,6.998L50.648,10.517c-0.351-0.638-1.4-0.638-1.752,0L18.05,66.459l-1.958-6.625c-0.156-0.53-0.711-0.832-1.242-0.676
		c-0.53,0.157-0.832,0.713-0.676,1.242L16.806,69.307z M50.772,14.884l28.831,52.288C51.375,56.135,50.775,25.068,50.772,24.746
		V14.884z M50.772,36.854c2.805,10.06,9.542,23.87,25.69,31.185h-25.69V36.854z M48.772,68.039h-25.71
		c16.167-7.3,22.909-21.076,25.71-31.114V68.039z M48.772,14.884v9.869v0.117c-0.002,0.321-0.567,31.293-28.834,42.306
		L48.772,14.884z"/>
</g>
</svg>
