<?xml version="1.0" encoding="utf-8"?>
<!-- Generator: Adobe Illustrator 22.0.1, SVG Export Plug-In . SVG Version: 6.00 Build 0)  -->
<svg version="1.1" id="Layer_1" xmlns="http://www.w3.org/2000/svg" xmlns:xlink="http://www.w3.org/1999/xlink" x="0px" y="0px"
	 viewBox="0 0 100 100" style="enable-background:new 0 0 100 100;" xml:space="preserve">
<g>
	<path d="M16.55,17.601c2.351,0,4.412-1.25,5.575-3.118c1.162,1.868,3.224,3.118,5.575,3.118s4.412-1.25,5.575-3.118
		c1.162,1.868,3.224,3.118,5.575,3.118c2.351,0,4.413-1.25,5.575-3.118c1.162,1.868,3.223,3.118,5.575,3.118s4.412-1.25,5.575-3.118
		c1.162,1.868,3.224,3.118,5.575,3.118c2.351,0,4.413-1.25,5.575-3.118c1.162,1.868,3.223,3.118,5.575,3.118
		c2.351,0,4.413-1.25,5.575-3.118c1.162,1.868,3.223,3.118,5.575,3.118c3.626,0,6.575-2.961,6.575-6.601c0-0.552-0.448-1-1-1
		s-1,0.448-1,1c0,2.537-2.052,4.601-4.575,4.601c-2.522,0-4.575-2.064-4.575-4.601c0-0.552-0.448-1-1-1s-1,0.448-1,1
		c0,2.537-2.052,4.601-4.575,4.601c-2.522,0-4.575-2.064-4.575-4.601c0-0.552-0.448-1-1-1s-1,0.448-1,1
		c0,2.537-2.052,4.601-4.575,4.601c-2.523,0-4.575-2.064-4.575-4.601c0-0.552-0.448-1-1-1c-0.552,0-1,0.448-1,1
		c0,2.537-2.052,4.601-4.575,4.601S45.425,13.537,45.425,11c0-0.552-0.448-1-1-1c-0.552,0-1,0.448-1,1
		c0,2.537-2.052,4.601-4.575,4.601c-2.523,0-4.575-2.064-4.575-4.601c0-0.552-0.448-1-1-1s-1,0.448-1,1
		c0,2.537-2.052,4.601-4.575,4.601c-2.523,0-4.575-2.064-4.575-4.601c0-0.552-0.448-1-1-1s-1,0.448-1,1
		c0,2.537-2.052,4.601-4.575,4.601c-2.523,0-4.575-2.064-4.575-4.601c0-0.552-0.448-1-1-1c-0.552,0-1,0.448-1,1
		C9.975,14.64,12.925,17.601,16.55,17.601z"/>
	<path d="M69.785,62.691C61.415,62.151,51.787,66.435,42,74.936c-2.372-2.168-4.756-4.593-7.136-7.265
		c-0.29-0.325-0.496-0.556-0.612-0.676c-0.384-0.397-1.017-0.407-1.414-0.022c-0.397,0.384-0.407,1.017-0.023,1.414
		c0.105,0.108,0.292,0.319,0.555,0.615c2.383,2.676,4.758,5.105,7.116,7.282c-2.42,2.206-4.848,4.667-7.264,7.374
		c-0.257,0.288-0.44,0.493-0.543,0.6c-0.384,0.397-0.374,1.03,0.022,1.414c0.397,0.384,1.03,0.372,1.414-0.022
		c0.114-0.118,0.316-0.343,0.599-0.66c2.421-2.712,4.848-5.17,7.261-7.362c9.249,8.147,18.202,12.375,26.332,12.374
		c0.497,0,0.993-0.016,1.484-0.048c7.653-0.495,14.36-4.891,19.936-13.068c0.232-0.34,0.232-0.787,0-1.127
		C84.157,67.588,77.447,63.192,69.785,62.691z M69.663,87.957c-7.803,0.492-16.86-3.589-26.162-11.683
		c9.3-8.039,18.362-12.104,26.154-11.587c6.842,0.447,12.905,4.36,18.03,11.634C82.556,83.602,76.496,87.516,69.663,87.957z"/>
	<path d="M66.986,75.616l-2.457-2.469l2.457-2.469c0.389-0.392,0.388-1.025-0.003-1.414c-0.392-0.39-1.024-0.388-1.414,0.003
		l-3.16,3.174c-0.389,0.39-0.389,1.021,0,1.411l2.457,2.469l-2.457,2.469c-0.389,0.39-0.389,1.021,0,1.411l3.16,3.174
		c0.195,0.196,0.452,0.294,0.708,0.294c0.255,0,0.51-0.097,0.706-0.292c0.391-0.389,0.393-1.022,0.003-1.414l-2.457-2.469
		l2.457-2.469C67.374,76.637,67.374,76.006,66.986,75.616z"/>
	<path d="M75.991,70.493c-2.68,0-4.861,2.188-4.861,4.879c0,0.552,0.448,1,1,1c0.552,0,1-0.448,1-1c0-1.587,1.283-2.879,2.861-2.879
		c1.578,0,2.861,1.291,2.861,2.879c0,0.552,0.448,1,1,1c0.552,0,1-0.448,1-1C80.853,72.682,78.672,70.493,75.991,70.493z"/>
	<path d="M47.484,56.231c7.653-0.495,14.36-4.891,19.936-13.067c0.232-0.34,0.232-0.787,0-1.127
		c-5.571-8.17-12.281-12.566-19.943-13.067c-8.374-0.545-17.998,3.743-27.785,12.244c-2.372-2.168-4.756-4.592-7.135-7.264
		c-0.29-0.326-0.497-0.557-0.613-0.677c-0.384-0.397-1.017-0.406-1.414-0.022c-0.396,0.384-0.407,1.017-0.022,1.414
		c0.105,0.109,0.292,0.319,0.556,0.615c2.383,2.676,4.758,5.105,7.115,7.281c-2.42,2.206-4.847,4.667-7.263,7.373
		c-0.257,0.288-0.44,0.494-0.544,0.601c-0.384,0.397-0.374,1.03,0.022,1.414c0.396,0.384,1.03,0.373,1.414-0.022
		c0.114-0.118,0.316-0.343,0.599-0.661c2.422-2.712,4.847-5.169,7.261-7.361C28.917,52.053,37.87,56.279,46,56.279
		C46.498,56.279,46.992,56.263,47.484,56.231z M21.193,42.553c9.299-8.038,18.357-12.102,26.153-11.587
		c6.842,0.447,12.905,4.36,18.03,11.634c-5.129,7.28-11.189,11.193-18.022,11.635C39.546,54.739,30.495,50.648,21.193,42.553z"/>
	<path d="M44.678,41.895l-2.458-2.469l2.458-2.469c0.389-0.392,0.388-1.025-0.003-1.414c-0.392-0.39-1.024-0.389-1.414,0.003
		l-3.16,3.174c-0.389,0.39-0.389,1.021,0,1.411l2.457,2.469l-2.457,2.468c-0.389,0.39-0.389,1.021,0,1.411l3.16,3.174
		c0.195,0.196,0.452,0.294,0.708,0.294c0.255,0,0.51-0.097,0.706-0.292c0.391-0.389,0.393-1.022,0.003-1.414l-2.458-2.469
		l2.457-2.468C45.066,42.916,45.066,42.285,44.678,41.895z"/>
	<path d="M49.821,42.65c0.552,0,1-0.448,1-1c0-1.587,1.284-2.879,2.861-2.879c1.578,0,2.861,1.292,2.861,2.879c0,0.552,0.448,1,1,1
		c0.552,0,1-0.448,1-1c0-2.69-2.181-4.879-4.861-4.879c-2.681,0-4.861,2.188-4.861,4.879C48.821,42.203,49.269,42.65,49.821,42.65z"
		/>
</g>
</svg>
